<?xml version="1.0" encoding="UTF-8" standalone="no"?>
<!-- Created with Inkscape (http://www.inkscape.org/) -->

<svg
   xmlns:dc="http://purl.org/dc/elements/1.1/"
   xmlns:cc="http://creativecommons.org/ns#"
   xmlns:rdf="http://www.w3.org/1999/02/22-rdf-syntax-ns#"
   xmlns:svg="http://www.w3.org/2000/svg"
   xmlns="http://www.w3.org/2000/svg"
   xmlns:sodipodi="http://sodipodi.sourceforge.net/DTD/sodipodi-0.dtd"
   xmlns:inkscape="http://www.inkscape.org/namespaces/inkscape"
   version="1.1"
   id="svg46"
   width="111.95175"
   height="37.976044"
   viewBox="0 0 111.95175 37.976043"
   sodipodi:docname="Peter-Cat.svg"
   inkscape:version="0.92.1 r15371">
  <metadata
     id="metadata52">
    <rdf:RDF>
      <cc:Work
         rdf:about="">
        <dc:format>image/svg+xml</dc:format>
        <dc:type
           rdf:resource="http://purl.org/dc/dcmitype/StillImage" />
        <dc:title></dc:title>
      </cc:Work>
    </rdf:RDF>
  </metadata>
  <defs
     id="defs50" />
  <sodipodi:namedview
     pagecolor="#ffffff"
     bordercolor="#666666"
     borderopacity="1"
     objecttolerance="10"
     gridtolerance="10"
     guidetolerance="10"
     inkscape:pageopacity="0"
     inkscape:pageshadow="2"
     inkscape:window-width="1213"
     inkscape:window-height="895"
     id="namedview48"
     showgrid="false"
     fit-margin-top="0"
     fit-margin-left="0"
     fit-margin-right="0"
     fit-margin-bottom="0"
     inkscape:zoom="6.0053135"
     inkscape:cx="60.986948"
     inkscape:cy="41.853465"
     inkscape:window-x="112"
     inkscape:window-y="14"
     inkscape:window-maximized="0"
     inkscape:current-layer="svg46" />
  <path
     style="fill:#000000;stroke-width:0.31999996"
     d="m 8.8109315,37.838213 c -0.352,-0.0502 -2.116,-0.26285 -3.919999,-0.47249 -2.363362,-0.27464 -3.28,-0.50265 -3.28,-0.81588 0,-1.6654 3.247854,-8.58957 5.806356,-12.378699 l 1.246151,-1.845543 -0.827086,-0.314457 C 7.3814565,21.838193 6.8386425,21.693525 6.6300995,21.689659 5.8133775,21.674519 3.3175735,20.32893 2.3216105,19.366773 1.1769615,18.260978 0.01905354,15.136876 1.6539785e-5,13.102978 -0.00798346,12.251247 2.8885325,2.4925312 3.4177125,1.5882302 c 0.03491,-0.05965 0.587816,0.471936 1.228688,1.181302 1.88502,2.086493 3.174673,2.406935 8.9110855,2.214147 5.941465,-0.199683 7.294124,-0.651727 8.924597,-2.982527 0.576868,-0.824643 1.195607,-1.70491596 1.374979,-1.95616496 0.538026,-0.753612 4.952592,8.17875896 5.177309,10.47569376 0.299325,3.059507 -0.518787,5.112086 -3.044406,7.638169 -1.176467,1.176684 -2.491955,2.358934 -2.923302,2.627219 l -0.784269,0.487792 1.041011,1.091411 c 1.228483,1.287965 4.228838,5.701731 5.038073,7.411411 0.312394,0.66 0.732631,1.2 0.933859,1.2 0.649767,0 3.359642,-1.96801 4.166512,-3.02587 1.901395,-2.49285 0.889853,-5.334437 -2.172553,-6.103052 -1.145271,-0.287446 -2.585031,1.023725 -2.585031,2.354151 0,1.221171 0.896512,2.294771 1.916263,2.294771 0.775123,0 0.889548,0.22505 0.556166,1.09383 -0.301453,0.78558 -1.520054,0.59806 -2.429363,-0.37383 -1.25367,-1.33995 -1.8564,-2.773754 -1.8564,-4.416106 0,-1.265446 0.162662,-1.650553 1.088,-2.575891 1.338627,-1.338627 2.916109,-1.44983 5.02167,-0.354 1.629661,0.848154 2.855097,2.871703 2.842505,4.693805 -0.01888,2.733032 -1.542966,6.598442 -3.732134,9.465502 -0.665452,0.87152 -1.170502,1.8172 -1.122336,2.10152 0.09748,0.5754 -1.497555,0.96733 -6.329311,1.55524 -2.372989,0.28873 -14.100846,0.40081 -15.8483935,0.15146 z M 16.452827,17.46269 c 0.479959,-0.765703 -0.423515,-1.676528 -1.366213,-1.377328 -0.663187,0.210486 -0.944477,1.395862 -0.44885,1.891491 0.377697,0.377696 1.445656,0.07517 1.815063,-0.514163 z m 6.798098,-0.81312 c 2.384624,-1.938867 2.412211,-6.239344 0.05063,-7.8934588 -0.917053,-0.642326 -3.104202,-0.642326 -4.021255,0 -2.314788,1.6213438 -2.179967,6.6793148 0.212701,7.9795868 1.145875,0.622717 2.936589,0.581677 3.75792,-0.08613 z m -1.159994,-2.236832 c -0.790806,-0.246589 -1.28,-1.093968 -1.28,-2.217213 0,-1.119225 0.91777,-2.3388378 1.76,-2.3388378 0.842231,0 1.76,1.2196128 1.76,2.3388378 0,1.565229 -1.0375,2.592173 -2.24,2.217213 z m -9.309181,0.41904 c 1.153338,-0.596416 1.837186,-2.174937 1.436192,-3.315158 -0.411147,-1.169091 -2.204326,-2.2999328 -3.64701,-2.2999328 -1.4426845,0 -3.2358625,1.1308418 -3.6470105,2.2999328 -0.39103,1.111891 0.269375,2.701356 1.371187,3.300182 1.092418,0.593718 3.3528865,0.601264 4.4866415,0.01498 z m -2.398324,-1.891379 c -0.100708,-0.262442 -0.135718,-0.811638 -0.0778,-1.220438 0.08728,-0.616064 0.296992,-0.743274 1.225306,-0.743274 1.066667,0 1.12,0.05333 1.12,1.12 0,1.030182 -0.08358,1.128054 -1.0422,1.220438 -0.6989,0.06735 -1.102515,-0.05674 -1.225306,-0.376726 z m 72.254605,22.950964 c -2.455209,-2.5624 -2.76614,-3.61972 -2.892547,-9.83614 -0.121798,-5.989791 0.100995,-7.087685 1.903056,-9.377941 1.242765,-1.579443 2.215613,-1.98889 4.762384,-2.004378 2.76307,-0.0168 4.240338,0.433344 5.475458,1.668467 1.13785,1.13785 2.51661,3.847507 2.52142,4.955315 0.003,0.648877 -0.15136,0.72 -1.56077,0.72 h -1.56389 l -0.12524,-2.216496 c -0.16237,-2.873625 -0.70918,-3.543503 -2.892468,-3.543503 -1.83727,0 -3.06003,0.558806 -4.207973,1.923056 -1.289868,1.532918 -1.563977,3.151369 -1.434822,8.47172 0.10705,4.40982 0.182135,4.92138 0.912467,6.21688 0.437703,0.77641 1.192736,1.70521 1.677858,2.064 1.12305,0.8306 2.87114,0.84368 3.78724,0.0284 0.925758,-0.82395 1.874918,-2.93403 1.883698,-4.18768 0.006,-0.87592 0.13339,-1.02223 0.99971,-1.14938 0.54598,-0.0801 1.34124,-0.0791 1.76725,0.002 0.69665,0.13318 0.75488,0.26486 0.579,1.30938 -0.30723,1.82458 -1.65936,4.38514 -2.8829,5.45942 -1.08262,0.95056 -1.2167,0.98189 -4.202018,0.98189 h -3.083723 l -1.42319,-1.48532 z M 69.18513,29.776683 c -0.0086,-4.004 0.06134,-7.686035 0.155408,-8.182301 0.157622,-0.831532 0.275334,-0.897158 1.500713,-0.836704 0.731322,0.03608 1.710166,-0.0376 2.175213,-0.163734 1.006598,-0.273024 2.707452,0.497891 2.954723,1.339232 0.539254,1.834806 0.552637,2.884897 0.04326,3.394277 -0.920176,0.92018 -1.338989,0.62496 -1.924087,-1.356248 -0.396793,-1.343584 -1.30856,-2.017389 -1.778758,-1.314519 -0.197491,0.295213 -0.286377,3.159507 -0.230893,7.440247 l 0.09022,6.96024 -1.485082,-2.4e-4 -1.485081,-2.5e-4 -0.01565,-7.28 z m 28.227602,6.66893 c -2.17607,-1.32691 -2.33171,-5.53635 -0.25501,-6.89705 0.40048,-0.26241 1.31428,-0.57084 2.03067,-0.68539 l 1.302528,-0.20829 v -1.72596 c 0,-1.53469 -0.0895,-1.76672 -0.807368,-2.09382 -0.67551,-0.307786 -0.9499,-0.262999 -1.68,0.27421 -0.98005,0.72112 -2.50578,1.18354 -2.96617,0.899 -0.44512,-0.2751 0.46008,-1.851944 1.6266,-2.833508 0.77651,-0.653396 1.33996,-0.838119 2.55644,-0.838119 3.760788,0 4.286818,1.164023 3.969598,8.784217 -0.14189,3.40827 -0.36072,5.54401 -0.58311,5.69088 -0.75238,0.49688 -4.174458,0.25564 -5.194178,-0.36617 z m 2.38683,-2.44398 c 0.204248,-0.44828 0.371358,-1.31228 0.371358,-1.92 0,-0.88502 -0.12514,-1.10495 -0.628738,-1.10495 -0.99609,0 -1.43302,1.14497 -0.99493,2.60719 0.43153,1.4403 0.73958,1.54306 1.25231,0.41776 z m -61.903614,1.05505 c 0.102729,-0.924 0.278128,-4.81629 0.389766,-8.64955 0.231712,-7.955928 0.06827,-7.562658 3.172685,-7.634226 2.767065,-0.06379 4.218406,1.44369 4.288185,4.454058 0.0532,2.295208 -1.782032,4.639308 -3.95071,5.046158 -1.017264,0.19084 -1.069949,0.26603 -0.961741,1.37273 0.06297,0.64396 0.183619,2.41845 0.268122,3.94332 0.172182,3.10715 0.145145,3.14751 -2.108381,3.14751 h -1.284713 z m 4.651756,-9.40315 c 0.437079,-0.55566 0.663226,-1.31166 0.663226,-2.217144 0,-1.562381 -0.612333,-2.379703 -1.782858,-2.379703 -0.761903,0 -0.777142,0.05333 -0.777142,2.72 0,2.472527 0.05611,2.719997 0.616774,2.719997 0.339226,0 0.915226,-0.37942 1.28,-0.84315 z M 55.9265,36.016683 c -1.037907,-0.78815 -1.247833,-2.14576 -1.014022,-6.55773 l 0.224816,-4.24227 H 54.35811 c -0.965504,0 -1.547181,-0.55071 -1.547181,-1.464816 0,-0.894925 0.776666,-1.53777 1.598295,-1.322906 0.578038,0.151159 0.641705,0.01165 0.641705,-1.406015 v -1.573824 l 1.36,0.208313 c 0.748,0.114573 1.406618,0.246893 1.463597,0.294045 0.05698,0.04715 -0.11728,0.512858 -0.387239,1.034899 -0.269958,0.522042 -0.400576,1.039421 -0.290262,1.149738 0.110314,0.110313 0.896569,0.200569 1.747238,0.200569 h 1.546666 v 1.433904 c 0,1.571783 -0.409767,1.860113 -2.4,1.688753 l -0.96,-0.0827 0.11784,4.48 c 0.06481,2.464 0.18064,4.54783 0.257398,4.63073 0.246506,0.26624 0.671367,-0.68327 0.874701,-1.95486 0.108694,-0.67973 0.318435,-1.23587 0.46609,-1.23587 0.390934,0 2.283971,0.68145 2.283971,0.82218 0,0.63604 -1.688282,3.68255 -2.18937,3.95072 -0.869923,0.46557 -2.366883,0.4393 -3.015059,-0.0529 z m 51.08093,-1.57427 c -1.16133,-0.56232 -1.39651,-1.65686 -1.39651,-6.49953 v -4.603688 l -0.88,-0.101254 c -0.76065,-0.08752 -0.89329,-0.261063 -0.97803,-1.279636 -0.0934,-1.123097 -0.0484,-1.183148 0.96,-1.279999 1.00996,-0.097 1.06233,-0.16737 1.15259,-1.548688 l 0.0945,-1.447069 1.29329,0.123334 c 1.0233,0.09759 1.25843,0.232666 1.12636,0.647069 -0.6695,2.100685 -0.73882,1.963734 0.99392,1.963734 1.52823,0 1.60585,0.04266 1.79456,0.986196 0.31584,1.579174 -0.22554,2.213804 -1.8885,2.213804 h -1.42874 l 0.004,3.759997 c 0.004,3.83508 0.17821,5.2 0.66194,5.2 0.14941,0 0.36716,-0.72 0.4839,-1.6 0.22482,-1.69476 0.34613,-1.76826 1.94042,-1.17565 l 1.01062,0.37565 -0.87634,1.92391 c -1.10754,2.43144 -2.37573,3.16143 -4.0684,2.34182 z m -43.822114,-2.14914 c -1.410403,-0.86007 -2.163779,-2.62555 -1.972013,-4.62128 0.19487,-2.02806 1.000749,-2.77531 2.993075,-2.77531 1.535936,0 2.463779,0.65766 3.03039,2.14797 0.520471,1.36894 0.182547,1.69203 -1.769699,1.69203 -1.599299,0 -1.782096,0.0723 -1.95838,0.77469 -0.326186,1.29962 -0.04439,1.93699 0.904822,2.04655 0.694339,0.0801 0.942169,-0.0699 1.189341,-0.72 0.221414,-0.58235 0.547244,-0.82124 1.120156,-0.82124 1.094381,0 1.043683,0.77347 -0.127465,1.94462 -1.083776,1.08378 -2.026803,1.17558 -3.410227,0.33197 z m 1.679414,-5.0214 c 0.106544,-0.27765 -0.03082,-0.72934 -0.305229,-1.00376 -0.677443,-0.67744 -1.508572,-0.29259 -1.508572,0.69853 0,0.65339 0.156652,0.81004 0.810041,0.81004 0.445526,0 0.897216,-0.22716 1.00376,-0.50481 z m -15.776988,4.05071 c -2.107078,-1.28483 -2.636703,-5.16539 -0.909772,-6.6659 1.743001,-1.514464 4.885052,-0.268906 5.045199,2 0.06687,0.94734 0.04463,0.96131 -1.685254,1.05926 -0.96416,0.0546 -1.861955,0.27059 -1.995101,0.48 -0.403203,0.63414 -0.281187,2.03806 0.212759,2.448 0.608124,0.5047 1.689971,0.14588 1.940553,-0.64362 0.22496,-0.7088 1.754803,-0.88621 1.754803,-0.20351 0,0.69604 -1.740198,2.13996 -2.57751,2.13868 -0.430368,-6.4e-4 -1.233923,-0.27647 -1.785677,-0.61291 z m 1.803187,-5.10672 c 0,-0.76775 -0.808124,-1.44593 -1.435926,-1.20502 -0.26624,0.10217 -0.484073,0.55028 -0.484073,0.9958 0,0.68672 0.14616,0.81004 0.959999,0.81004 0.725799,0 0.96,-0.14657 0.96,-0.60082 z"
     id="path56"
     inkscape:connector-curvature="0" />
</svg>
